<svg width="32" height="26" viewBox="0 0 32 26" fill="none" xmlns="http://www.w3.org/2000/svg">
<path d="M4.371 26V23.102H14.587V16.93C6.391 16.113 0.038 9.27196 0 0.93796V0.93396H2.881C2.895 5.33096 5.074 9.21596 8.407 11.581L8.448 11.608C10.52 13.153 13.131 14.082 15.959 14.082C16.196 14.082 16.432 14.075 16.667 14.063L16.634 14.064C23.627 13.725 29.177 8.00396 29.24 0.97296V0.966959H32.138C32.138 0.999959 32.138 1.03896 32.138 1.07796C32.138 5.22796 30.531 9.00296 27.905 11.815L27.913 11.806C25.306 14.656 21.696 16.55 17.645 16.926L17.582 16.931V23.021H27.831V25.968L4.371 26Z" fill="#CCBA8D"/>
</svg>
